<svg width="72" height="72" viewBox="0 0 72 72" fill="none" xmlns="http://www.w3.org/2000/svg">
<path d="M22.0706 10.0333L15.8966 12.3853L7.02887 21.988L2 34.7501L3.56905 41.2408C5.09484 45.8484 7.62319 49.0603 12.1528 52.4838L15.419 49.3434C15.419 49.3434 20.0639 58.7137 28.4702 60.2329C28.4702 60.2329 40.9419 62.5859 47.4239 59.1676C49.2347 58.2127 50.4795 56.9446 51.4251 56.0151C53.9411 53.5417 55.1113 51.7368 56.9445 49.6471L58.9743 51.8441L61.2081 51.7764L67.3056 42.9902L69.7402 36.8279L69.7141 31.6565L67.0725 24.8332L61.1982 15.8191C61.1982 15.8191 57.9935 10.6467 51.2725 11.0588C51.2725 11.0588 43.3726 5.18455 36.8906 6.09608C30.4086 7.00762 32.5026 5.27303 22.0706 10.0333Z" fill="#F4AA41"/>
<path d="M36.0804 48.4077L32.333 51.3449H29.2946L29.9321 56.0721L30.4435 59.7369L31.4215 62.5872L34.865 64.4102L40.4354 63.7013L41.4802 61.0224L42.3324 55.9444L43.2714 51.5475L40.8406 51.8514L36.0804 48.4077Z" fill="#EA5A47"/>
<path d="M31.8265 36.4805L29.9022 41.0382L32.5355 42.5574L34.0547 43.1651L39.3214 43.3677L42.8662 40.6331L40.7393 36.6831L31.8265 36.4805Z" fill="#3F3F3F"/>
<path d="M28.5791 27.5732C28.5791 27.5732 26.3853 29.0832 25.2388 28.385C24.0922 27.6867 23.7288 26.1911 24.427 25.0446C25.1253 23.8982 26.6208 23.5346 27.7674 24.2329C28.914 24.9311 28.5791 27.5732 28.5791 27.5732Z" fill="black"/>
<path d="M32.958 35.9559H40.4274C40.9149 35.9559 41.3552 36.2472 41.5459 36.6959L42.9532 40.0072L40.3046 41.3996C39.5564 41.7928 38.6451 41.3212 38.5342 40.4832" stroke="black" stroke-width="2.43076" stroke-linecap="round" stroke-linejoin="round"/>
<path d="M34.9654 40.522C34.8278 41.2838 34.0226 41.7247 33.3068 41.4301L30.4954 40.273L31.82 36.7442C31.9981 36.27 32.4514 35.9559 32.9578 35.9559" stroke="black" stroke-width="2.43076" stroke-linecap="round" stroke-linejoin="round"/>
<path d="M29.7099 51.7811C29.7099 51.7811 28.8364 62.4684 33.3648 63.8589C36.5806 64.8464 39.6236 64.506 40.733 63.5551C41.7965 62.6436 43.9323 58.1174 42.9532 51.7811" stroke="black" stroke-width="2.43076" stroke-linecap="round" stroke-linejoin="round"/>
<path d="M46.5152 27.5732C46.5152 27.5732 48.7089 29.0832 49.8555 28.385C51.0021 27.6868 51.3655 26.1911 50.6673 25.0446C49.9691 23.8981 48.4735 23.5347 47.3269 24.2329C46.1803 24.9311 46.5152 27.5732 46.5152 27.5732Z" fill="black"/>
<path d="M23.8616 43.0456C23.2843 47.4239 26.5771 50.0346 29.0691 51.3605C30.5237 52.1343 32.2908 51.9903 33.5874 50.9739L36.7243 48.5148L39.8612 50.9739C41.1579 51.9903 42.925 52.1343 44.3795 51.3605C46.8715 50.0346 50.1643 47.4239 49.587 43.0456" stroke="black" stroke-width="2.43076" stroke-linecap="round" stroke-linejoin="round"/>
<path d="M16.966 25.4443C14.1505 31.7153 16.3481 41.2745 17.1106 44.1319C17.2589 44.6874 17.2024 45.2689 16.9562 45.7886L14.5407 50.8855C13.7835 52.4832 11.6318 52.7733 10.4923 51.4213C6.61269 46.8186 0.090608 37.5783 2.53328 31.1415C11.1169 8.52287 21.8185 9.09105 21.8185 9.09105C25.2767 6.741 37.7451 0.659367 51.9751 10.1545C51.9751 10.1545 62.4666 8.0671 70.1298 30.74C72.3219 37.2255 65.9614 46.378 62.1684 50.969C61.0366 52.3387 58.8672 52.0554 58.1062 50.4498L55.7069 45.387C55.4607 44.8674 55.4042 44.2859 55.5525 43.7303C56.3151 40.8731 58.5126 31.3139 55.6971 25.0428" stroke="black" stroke-width="2.43076" stroke-linecap="round" stroke-linejoin="round"/>
<path d="M56.6846 47.4495C56.6846 47.4495 52.9435 55.6188 47.1987 57.5021" stroke="black" stroke-width="2.43076" stroke-linecap="round" stroke-linejoin="round"/>
<path d="M16.3413 48.0647C16.3413 48.0647 20.0824 55.457 25.8272 57.3405" stroke="black" stroke-width="2.43076" stroke-linecap="round" stroke-linejoin="round"/>
<path d="M36.7244 48.5148V44.8322" stroke="black" stroke-width="2.43076" stroke-linecap="round" stroke-linejoin="round"/>
</svg>
