<svg width="150" height="150" viewBox="0 0 150 150" fill="none" xmlns="http://www.w3.org/2000/svg">
<path d="M46.7178 22.9883C53.4037 18.4448 77.9153 6.43248 106.027 25.1904C106.577 25.5573 107.25 25.6909 107.898 25.5635L107.899 25.5645C107.899 25.5646 107.896 25.5652 107.895 25.5654C107.892 25.566 107.889 25.566 107.887 25.5664C107.882 25.5672 107.879 25.568 107.877 25.5684C107.873 25.5691 107.874 25.5692 107.879 25.5684C107.89 25.5665 107.922 25.5618 107.971 25.5557C108.069 25.5435 108.242 25.5258 108.481 25.5156C108.961 25.4953 109.712 25.5041 110.683 25.6436C112.615 25.9212 115.464 26.7224 118.834 28.8984C125.574 33.2507 134.652 43.2811 142.434 66.3037V66.3047C144.359 72.0033 142.599 79.2723 138.979 86.6992C135.414 94.0128 130.322 100.916 126.479 105.568C125.331 106.957 123.098 106.695 122.305 105.021L117.363 94.5957C117.106 94.0516 117.053 93.4608 117.202 92.9004C118.008 89.8814 119.571 83.3305 120.19 75.8555C120.805 68.4451 120.524 59.7828 117.364 52.7441C116.798 51.4837 115.316 50.9203 114.056 51.4863C112.795 52.0526 112.232 53.534 112.798 54.7949C115.436 60.6708 115.793 68.31 115.201 75.4424C114.615 82.5093 113.13 88.7446 112.365 91.6104C111.904 93.3378 112.084 95.1436 112.84 96.7393L116.799 105.094C113.877 108.622 111.474 111.946 107.09 116.256C105.143 118.17 102.578 120.783 98.8496 122.749C96.4351 124.022 93.6167 124.904 90.6201 125.498C91.6395 121.546 92.2074 116.536 91.6094 110.78C92.0647 110.61 92.5127 110.411 92.9492 110.179C98.2517 107.358 106.39 101.213 104.979 90.5176C104.798 89.1477 103.541 88.1828 102.171 88.3633C100.801 88.5444 99.8365 89.8021 100.017 91.1719C100.984 98.5093 95.5593 103.119 90.5977 105.759C90.0892 106.029 89.5556 106.222 89.0127 106.34C88.8296 106.327 88.6421 106.333 88.4531 106.362C88.3022 106.386 88.157 106.424 88.0176 106.472C86.596 106.541 85.1725 106.111 84.0127 105.202L78.5107 100.89V94.5244C78.5104 93.1424 77.3898 92.0217 76.0078 92.0215C74.6261 92.022 73.5052 93.1426 73.5049 94.5244V100.89L68.0039 105.202C66.1248 106.675 63.5524 106.894 61.418 105.759C56.4566 103.119 51.0326 98.5086 52 91.1719C52.1803 89.8018 51.2158 88.5441 49.8457 88.3633C48.4759 88.1833 47.2181 89.1478 47.0371 90.5176C45.6343 101.156 53.6794 107.291 58.9834 110.133C58.9582 110.715 58.933 111.448 58.9238 112.292C58.9002 114.468 58.9681 117.427 59.3438 120.502C59.5229 121.968 59.7776 123.495 60.1367 124.997C59.9265 124.96 59.8154 124.942 59.8154 124.942C46.1163 122.465 37.2671 109.864 34.1709 104.714L37.5586 97.5664L37.5596 97.5654C38.3154 95.9698 38.4943 94.164 38.0332 92.4365H38.0342C37.2693 89.5704 35.7833 83.3352 35.1973 76.2686C34.6059 69.1364 34.9626 61.4977 37.6006 55.6221C38.1666 54.3611 37.6037 52.8797 36.3428 52.3135C35.0819 51.7475 33.6005 52.3106 33.0342 53.5713C29.874 60.6099 29.5945 69.2722 30.209 76.6826C30.8289 84.158 32.3917 90.7087 33.1973 93.7275C33.3468 94.2877 33.293 94.8774 33.0352 95.4219L28.0605 105.919C27.272 107.583 25.058 107.856 23.8994 106.481C19.9687 101.818 14.7556 94.8676 11.1543 87.5264C7.49344 80.0635 5.80713 72.8239 7.93457 67.2178C16.652 44.2465 26.3278 33.3565 33.5391 28.1904C37.1461 25.6064 40.1751 24.4259 42.2295 23.8838C43.2596 23.612 44.0534 23.4981 44.5605 23.4512C44.8139 23.4277 44.9965 23.4207 45.1016 23.4189H45.1953C45.1931 23.4188 45.1903 23.4181 45.1875 23.418C45.7306 23.4448 46.2679 23.294 46.7178 22.9883ZM68.25 73.7412C66.1644 73.7418 64.2967 75.036 63.5635 76.9873V76.9883L60.835 84.2549C60.3602 85.52 60.9775 86.9343 62.2266 87.4492L68.0156 89.832C70.9642 91.0454 74.281 89.2301 74.8477 86.0928C75.0929 84.7328 74.1891 83.4303 72.8291 83.1846C71.4696 82.94 70.1668 83.8437 69.9209 85.2031L66.374 83.7432L68.25 78.7471H83.6328L85.6279 83.4443L82.2148 85.2393L82.1689 84.9873C81.8758 83.7535 80.6896 82.916 79.4053 83.0859C78.0361 83.2681 77.0712 84.527 77.252 85.8965C77.7089 89.347 81.4624 91.2895 84.5439 89.6709H84.5449L89.999 86.8027C91.152 86.1965 91.6472 84.8073 91.1377 83.6084L88.2393 76.7891C87.4535 74.942 85.6402 73.7413 83.6328 73.7412H68.25ZM57.0273 49.6084C53.4366 47.4232 48.752 48.5606 46.5654 52.1504C44.3798 55.7402 45.5184 60.4251 49.1074 62.6123C52.6653 64.7792 59.4458 60.155 59.5693 60.0703C59.5781 60.0004 60.6029 51.7861 57.0273 49.6084ZM105.45 52.1494C103.264 48.5608 98.5814 47.4227 94.9922 49.6084C91.426 51.7829 92.439 59.9681 92.4512 60.0654C92.4512 60.0654 99.3192 64.7905 102.909 62.6064C106.498 60.4204 107.636 55.7385 105.45 52.1494Z" fill="currentColor"/>
<path d="M75.1051 102.561L68.0184 108.515H62.2725L63.4782 118.098L64.4451 125.527L66.2946 131.305L72.8067 135L83.3409 133.563L85.3166 128.133L86.9282 117.839L88.7039 108.926L84.1072 109.542L75.1051 102.561Z" fill="currentColor"/>
</svg>
